<?xml version="1.0" encoding="UTF-8"?><svg id="katman_1" xmlns="http://www.w3.org/2000/svg" viewBox="0 0 752.215 204.992"><defs><style>.cls-1{fill:#f4eef7;}.cls-2{fill:#1d1d1b;}</style></defs><path class="cls-2" d="m169.717,148.42c0,4.088-2.152,7.314-7.314,7.314h-32.911c-5.162,0-8.389-3.226-8.389-7.314,0-8.819,7.529-11.185,5.592-29.469l-2.366-24.952c-1.075-11.616-8.604-17.208-15.702-17.208s-13.767,5.808-12.477,16.777l2.582,26.028c1.721,18.714,10.54,20.22,10.54,28.823,0,4.088-2.151,7.314-7.528,7.314h-32.696c-5.378,0-8.389-3.226-8.389-7.314,0-8.819,6.883-11.185,5.593-29.469l-2.797-27.963c-.86-9.68-6.453-14.197-12.046-14.197s-11.4,5.162-11.4,15.272v26.672c0,18.93,7.744,21.511,7.744,29.684,0,4.088-2.366,7.314-7.744,7.314H7.744c-5.163,0-7.744-3.226-7.744-7.314,0-8.173,7.744-10.754,7.744-29.684v-26.672c0-19.144-7.744-21.511-7.744-29.684,0-3.657,2.366-6.238,6.668-7.099l22.586-4.947c6.453-1.506,10.755,1.291,10.755,6.883v9.464c8.174-11.83,18.499-17.208,27.963-17.208,11.401,0,21.726,7.744,25.382,21.511,8.604-14.627,21.295-21.511,32.911-21.511,14.197,0,27.103,10.325,29.039,28.824l3.872,41.3c1.935,18.714,10.54,20.22,10.54,28.823Z"/><path class="cls-2" d="m301.142,129.061c6.669,0,10.971,7.959,6.883,13.767-7.528,10.325-19.788,15.273-31.619,15.273-17.424,0-33.986-10.54-33.986-30.115v-60.443c0-17.424-7.099-32.05-24.953-32.05-4.731,0-10.11.86-16.347,3.226-2.797,1.075-5.379,1.505-7.745,1.505-21.939,0-26.456-40.224,4.517-40.224,20.005,0,38.073,14.411,47.108,38.934l16.779-16.994c1.506-1.505,3.657-2.366,5.592-2.366,3.872,0,7.314,2.582,7.314,7.314v24.952h21.939c11.616,0,11.616,16.563,0,16.563h-21.939v54.636c0,7.959,3.871,10.325,8.819,10.325,4.517,0,9.679-1.936,14.197-3.657,1.289-.43,2.365-.645,3.44-.645Zm-83.889-10.325c0,18.93,7.743,21.511,7.743,29.684,0,4.088-2.582,7.314-7.743,7.314h-32.266c-5.379,0-7.745-3.226-7.745-7.314,0-8.173,7.745-10.754,7.745-29.684v-26.672c0-19.144-7.745-21.511-7.745-29.684,0-3.657,2.152-6.238,6.669-7.099l22.585-4.947c6.453-1.506,10.756,1.291,10.756,6.883v61.519Z"/><path class="cls-2" d="m401.171,122.178c4.948,0,9.894,4.948,6.668,13.767-5.162,14.627-20.865,22.156-38.074,22.156-26.027,0-54.851-17.208-54.851-54.421,0-28.394,15.917-54.206,52.915-54.206,50.55,0,50.55,63.886,0,63.886h-17.854c5.594,10.755,15.057,19.359,27.964,19.359,9.25,0,12.907-3.012,18.069-8.389,1.506-1.506,3.228-2.152,5.163-2.152Zm-56.358-25.597h14.842c16.777,0,18.93-29.899,1.722-29.899-13.553,0-18.714,14.412-16.564,29.899Z"/><path class="cls-2" d="m534.963,148.42c0,4.088-2.151,7.314-7.314,7.314h-32.91c-5.162,0-8.389-3.226-8.389-7.314,0-8.819,7.529-11.185,5.594-29.469l-2.582-27.963c-1.075-10.755-8.389-15.917-15.488-15.917-7.743,0-15.271,5.807-15.271,16.993v26.672c0,18.93,7.743,21.511,7.743,29.684,0,4.088-2.366,7.314-7.743,7.314h-32.266c-5.163,0-7.743-3.226-7.743-7.314,0-8.173,7.743-10.754,7.743-29.684v-26.672c0-19.144-7.743-21.511-7.743-29.684,0-3.657,2.365-6.238,6.668-7.099l22.585-4.947c6.453-1.506,10.756,1.291,10.756,6.883v9.034c9.034-11.616,20.864-16.778,31.619-16.778,15.057,0,28.393,10.54,30.33,28.824l3.871,41.3c1.937,18.714,10.54,20.22,10.54,28.823Z"/><path class="cls-2" d="m625.09,49.258c13.337,0,26.027,8.819,16.777,29.254l-46.892,102.819c-7.528,16.777-22.585,23.661-35.707,23.661-13.336,0-24.736-7.099-24.736-17.853,0-9.465,7.099-15.919,16.777-15.919,7.745,0,15.488,5.594,22.156,5.594,4.302,0,7.959-2.151,11.185-9.25l4.303-9.68c-6.883-1.075-12.262-5.162-15.488-12.691l-28.178-66.681c-1.075-2.796-3.226-5.378-8.82-4.732-3.656.43-5.592-1.291-5.592-4.732,0-11.83,9.68-19.574,20.65-19.574,8.82,0,18.499,5.378,23.876,18.069l26.244,61.95c13.98-32.266,13.767-58.078,4.731-60.229-2.58-.645-3.442-1.721-3.442-4.087,0-9.895,11.4-15.917,22.156-15.917Z"/><path class="cls-2" d="m752.215,142.398c0,7.959-7.099,15.702-20.65,15.702-11.185,0-20.219-6.239-21.295-16.348v-.645c-6.023,11.185-18.714,16.993-30.544,16.993-14.628,0-28.179-8.605-28.179-26.458,0-14.197,7.529-24.092,21.51-32.48-26.242-10.756-20.004-49.904,20.436-49.904,34.416,0,42.375,21.51,43.665,35.492l3.228,33.556c1.935,17.424,2.366,17.854,9.25,20.22,1.935.645,2.58,2.151,2.58,3.872Zm-59.583-53.561c1.937,0,3.872-.215,6.023-1.076,2.151-.645,4.086-1.505,6.239-2.151-1.291-13.551-2.582-20.65-13.337-20.65-7.099,0-11.4,5.592-11.185,11.4.215,6.883,4.948,12.477,12.26,12.477Zm-1.075,46.031c7.743,0,16.993-8.604,15.704-25.597v-.43l-.862-7.529c-16.348,5.162-26.027,11.83-24.092,24.522.86,6.023,4.732,9.034,9.25,9.034Z"/><path class="cls-1" d="m209.67,19.457l-7.556,14.005-14.005-7.556c-11.289-6.091-3.733-20.096,7.556-14.005,5.425-10.055,19.43-2.499,14.005,7.556Z"/></svg>