<?xml version="1.0" encoding="UTF-8"?><svg id="katman_1" xmlns="http://www.w3.org/2000/svg" viewBox="0 0 521.782 199.632"><defs><style>.cls-1{fill:none;}.cls-2{fill:#f4eef7;}.cls-3{fill:#332b43;}</style></defs><ellipse class="cls-2" cx="260.891" cy="99.816" rx="260.891" ry="99.816"/><path class="cls-1" d="m254.223,80.008c-7.372,0-10.182,7.841-9.011,16.268h8.075c9.129,0,10.299-16.268.936-16.268Z"/><path class="cls-3" d="m146.611,86.649c-1.053-10.064-8.076-15.683-15.8-15.683-6.32,0-13.225,3.745-17.906,11.704-1.99-7.49-7.607-11.704-13.81-11.704-5.15,0-10.767,2.926-15.215,9.363v-5.149c0-3.043-2.34-4.564-5.852-3.745l-12.289,2.691c-2.341.468-3.628,1.872-3.628,3.862,0,4.447,4.213,5.734,4.213,16.15v14.513c0,10.299-4.213,11.703-4.213,16.15,0,2.224,1.404,3.979,4.213,3.979h17.555c2.926,0,4.213-1.756,4.213-3.979,0-4.447-4.213-5.852-4.213-16.15v-14.513c0-5.5,3.16-8.31,6.203-8.31s6.086,2.458,6.554,7.725l1.521,15.215c.702,9.947-3.043,11.235-3.043,16.033,0,2.224,1.639,3.979,4.564,3.979h17.79c2.926,0,4.096-1.756,4.096-3.979,0-4.681-4.798-5.5-5.735-15.683l-1.404-14.161c-.702-5.969,2.926-9.129,6.788-9.129s7.958,3.043,8.543,9.363l1.287,13.576c1.054,9.947-3.042,11.235-3.042,16.033,0,2.224,1.755,3.979,4.564,3.979h17.907c2.809,0,3.979-1.756,3.979-3.979,0-4.681-4.682-5.5-5.735-15.683l-2.106-22.471Z"/><path class="cls-3" d="m223.617,114.27c-.585,0-1.17.117-1.872.352-2.458.937-5.267,1.989-7.725,1.989-2.692,0-4.798-1.287-4.798-5.617v-29.728h11.938c6.32,0,6.32-9.012,0-9.012h-11.938v-13.575c0-2.575-1.873-3.979-3.979-3.979-1.054,0-2.224.468-3.043,1.287l-9.129,9.246c-4.916-13.342-14.747-21.184-25.631-21.184-16.853,0-14.395,21.886-2.458,21.886,1.288,0,2.692-.234,4.213-.819,3.394-1.287,6.32-1.756,8.895-1.756,9.714,0,13.576,7.959,13.576,17.438v32.887c0,10.65,9.012,16.385,18.491,16.385,6.437,0,13.108-2.691,17.204-8.31,2.224-3.159-.117-7.49-3.745-7.49Zm-50.861-59.157l-4.881,6.564-6.564-4.881c-4.376-3.254.505-9.818,4.881-6.564,3.466-4.661,10.031.22,6.564,4.881Z"/><path class="cls-3" d="m177.973,75.181c0-3.043-2.34-4.564-5.852-3.745l-12.289,2.691c-2.458.468-3.628,1.872-3.628,3.862,0,4.447,4.213,5.734,4.213,16.15v14.513c0,10.299-4.213,11.703-4.213,16.15,0,2.224,1.288,3.979,4.213,3.979h17.555c2.809,0,4.213-1.756,4.213-3.979,0-4.447-4.213-5.852-4.213-16.15v-33.472Z"/><path class="cls-3" d="m275.697,110.524c-1.054,0-1.99.352-2.81,1.171-2.809,2.926-4.798,4.564-9.831,4.564-7.021,0-12.171-4.682-15.214-10.533h9.714c27.503,0,27.503-34.76,0-34.76-20.13,0-28.791,14.044-28.791,29.493,0,20.247,15.684,29.609,29.844,29.609,9.363,0,17.906-4.096,20.716-12.055,1.755-4.798-.937-7.49-3.628-7.49Zm-21.652-30.194c9.363,0,8.193,16.268-.936,16.268h-8.075c-1.171-8.427,1.639-16.268,9.011-16.268Z"/><path class="cls-3" d="m346.15,124.803c0-4.681-4.682-5.5-5.735-15.683l-2.106-22.471c-1.053-9.947-8.31-15.683-16.502-15.683-5.852,0-12.288,2.809-17.204,9.129v-4.915c0-3.043-2.341-4.564-5.852-3.745l-12.289,2.691c-2.34.468-3.628,1.872-3.628,3.862,0,4.447,4.214,5.734,4.214,16.15v14.513c0,10.299-4.214,11.703-4.214,16.15,0,2.224,1.404,3.979,4.214,3.979h17.555c2.926,0,4.214-1.756,4.214-3.979,0-4.447-4.214-5.852-4.214-16.15v-14.513c0-6.086,4.097-9.245,8.31-9.245,3.862,0,7.842,2.809,8.427,8.66l1.404,15.215c1.054,9.947-3.043,11.235-3.043,16.033,0,2.224,1.756,3.979,4.564,3.979h17.906c2.809,0,3.979-1.756,3.979-3.979Z"/><path class="cls-3" d="m392.844,70.85c-5.852,0-12.055,3.277-12.055,8.661,0,1.287.468,1.872,1.873,2.224,4.915,1.17,5.032,15.214-2.575,32.77l-14.278-33.706c-2.926-6.905-8.192-9.831-12.991-9.831-5.969,0-11.235,4.214-11.235,10.65,0,1.872,1.054,2.809,3.043,2.575,3.043-.352,4.214,1.053,4.799,2.574l15.331,36.281c1.756,4.096,4.682,6.319,8.427,6.904l-2.341,5.267c-1.755,3.862-3.745,5.033-6.086,5.033-3.628,0-7.841-3.043-12.054-3.043-5.267,0-9.129,3.511-9.129,8.66,0,5.852,6.202,9.714,13.459,9.714,7.139,0,15.331-3.745,19.428-12.874l25.514-55.942c5.032-11.118-1.873-15.917-9.129-15.917Z"/><path class="cls-3" d="m458.264,119.419c-3.745-1.287-3.979-1.521-5.032-11.001l-1.755-18.257c-.703-7.607-5.033-19.312-23.759-19.312-22.002,0-25.396,21.301-11.118,27.152-7.607,4.564-11.703,9.948-11.703,17.673,0,9.714,7.373,14.395,15.331,14.395,6.438,0,13.342-3.16,16.619-9.245v.351c.585,5.501,5.501,8.895,11.587,8.895,7.373,0,11.235-4.213,11.235-8.543,0-.937-.352-1.756-1.405-2.107Zm-31.599-40.025c5.852,0,6.554,3.862,7.256,11.235-1.17.351-2.224.819-3.395,1.17-1.17.469-2.224.586-3.276.586-3.979,0-6.554-3.043-6.671-6.788-.117-3.16,2.224-6.203,6.086-6.203Zm0,38.036c-2.458,0-4.564-1.639-5.033-4.915-1.053-6.905,4.214-10.533,13.108-13.342l.468,4.096v.234c.702,9.245-4.33,13.927-8.543,13.927Z"/></svg>