<?xml version="1.0" encoding="UTF-8"?><svg id="katman_1" xmlns="http://www.w3.org/2000/svg" viewBox="0 0 620.814 169.183"><defs><style>.cls-1{fill:#bc2e27;}.cls-2{fill:#1d1d1b;}</style></defs><path class="cls-2" d="m140.07,122.493c0,3.374-1.776,6.036-6.036,6.036h-27.162c-4.261,0-6.923-2.663-6.923-6.036,0-7.278,6.214-9.231,4.616-24.321l-1.953-20.593c-.888-9.587-7.101-14.202-12.959-14.202s-11.362,4.793-10.297,13.847l2.131,21.481c1.42,15.445,8.698,16.688,8.698,23.788,0,3.374-1.775,6.036-6.213,6.036h-26.984c-4.438,0-6.924-2.663-6.924-6.036,0-7.278,5.681-9.231,4.616-24.321l-2.308-23.078c-.71-7.989-5.325-11.717-9.942-11.717s-9.409,4.261-9.409,12.604v22.013c0,15.623,6.391,17.753,6.391,24.499,0,3.374-1.953,6.036-6.391,6.036H6.391c-4.261,0-6.391-2.663-6.391-6.036,0-6.746,6.391-8.876,6.391-24.499v-22.013c0-15.8-6.391-17.753-6.391-24.499,0-3.018,1.953-5.148,5.503-5.859l18.641-4.083c5.326-1.243,8.876,1.065,8.876,5.681v7.811c6.746-9.764,15.268-14.202,23.078-14.202,9.409,0,17.931,6.391,20.948,17.753,7.101-12.072,17.575-17.753,27.162-17.753,11.717,0,22.369,8.521,23.966,23.789l3.196,34.085c1.597,15.445,8.699,16.688,8.699,23.788Z"/><path class="cls-2" d="m248.537,106.516c5.504,0,9.055,6.569,5.681,11.362-6.213,8.521-16.332,12.605-26.096,12.605-14.38,0-28.049-8.699-28.049-24.854v-49.885c0-14.38-5.859-26.452-20.594-26.452-3.905,0-8.344.71-13.491,2.663-2.308.888-4.439,1.242-6.392,1.242-18.107,0-21.835-33.197,3.728-33.197,16.511,0,31.423,11.894,38.879,32.132l13.848-14.025c1.243-1.242,3.018-1.953,4.616-1.953,3.196,0,6.036,2.131,6.036,6.036v20.593h18.107c9.587,0,9.587,13.67,0,13.67h-18.107v45.092c0,6.568,3.195,8.521,7.278,8.521,3.728,0,7.988-1.598,11.717-3.018,1.064-.355,1.952-.533,2.839-.533Z"/><path class="cls-2" d="m179.303,97.995c0,15.623,6.391,17.753,6.391,24.499,0,3.374-2.131,6.036-6.391,6.036h-26.629c-4.439,0-6.392-2.663-6.392-6.036,0-6.746,6.392-8.876,6.392-24.499v-22.013c0-15.8-6.392-17.753-6.392-24.499,0-3.018,1.776-5.148,5.504-5.859l18.64-4.083c5.325-1.243,8.877,1.065,8.877,5.681v50.772Z"/><path class="cls-2" d="m331.092,100.835c4.084,0,8.166,4.084,5.503,11.362-4.26,12.072-17.22,18.286-31.423,18.286-21.48,0-45.269-14.202-45.269-44.914,0-23.434,13.137-44.737,43.672-44.737,41.72,0,41.72,52.726,0,52.726h-14.735c4.617,8.876,12.427,15.977,23.079,15.977,7.634,0,10.653-2.486,14.913-6.923,1.243-1.243,2.664-1.776,4.261-1.776Zm-46.513-21.126h12.249c13.847,0,15.623-24.676,1.421-24.676-11.185,0-15.445,11.894-13.67,24.676Z"/><path class="cls-2" d="m441.512,122.493c0,3.374-1.775,6.036-6.036,6.036h-27.161c-4.26,0-6.924-2.663-6.924-6.036,0-7.278,6.214-9.231,4.617-24.321l-2.131-23.078c-.888-8.876-6.924-13.137-12.783-13.137-6.391,0-12.604,4.793-12.604,14.024v22.013c0,15.623,6.391,17.753,6.391,24.499,0,3.374-1.953,6.036-6.391,6.036h-26.629c-4.261,0-6.391-2.663-6.391-6.036,0-6.746,6.391-8.876,6.391-24.499v-22.013c0-15.8-6.391-17.753-6.391-24.499,0-3.018,1.952-5.148,5.503-5.859l18.64-4.083c5.325-1.243,8.877,1.065,8.877,5.681v7.456c7.456-9.587,17.219-13.847,26.096-13.847,12.427,0,23.433,8.699,25.032,23.789l3.195,34.085c1.599,15.445,8.699,16.688,8.699,23.788Z"/><path class="cls-2" d="m515.896,40.654c11.007,0,21.48,7.278,13.847,24.144l-38.701,84.858c-6.213,13.847-18.64,19.528-29.47,19.528-11.006,0-20.415-5.859-20.415-14.734,0-7.812,5.859-13.138,13.847-13.138,6.392,0,12.783,4.617,18.286,4.617,3.55,0,6.568-1.775,9.231-7.634l3.551-7.989c-5.681-.888-10.12-4.26-12.783-10.474l-23.256-55.033c-.888-2.308-2.663-4.438-7.279-3.906-3.017.355-4.616-1.065-4.616-3.906,0-9.764,7.989-16.155,17.043-16.155,7.279,0,15.268,4.438,19.705,14.913l21.659,51.128c11.538-26.629,11.362-47.933,3.905-49.708-2.129-.533-2.84-1.42-2.84-3.373,0-8.166,9.409-13.137,18.286-13.137Z"/><path class="cls-2" d="m620.814,117.523c0,6.568-5.859,12.959-17.043,12.959-9.231,0-16.687-5.149-17.575-13.492v-.532c-4.971,9.231-15.445,14.024-25.208,14.024-12.073,0-23.257-7.102-23.257-21.836,0-11.717,6.214-19.883,17.752-26.806-21.658-8.877-16.509-41.186,16.866-41.186,28.404,0,34.973,17.752,36.037,29.292l2.664,27.694c1.597,14.38,1.953,14.735,7.634,16.688,1.597.533,2.129,1.775,2.129,3.196Zm-49.175-44.205c1.599,0,3.196-.178,4.971-.888,1.775-.532,3.372-1.242,5.149-1.775-1.065-11.184-2.131-17.043-11.007-17.043-5.859,0-9.409,4.616-9.231,9.409.178,5.681,4.084,10.297,10.119,10.297Zm-.888,37.99c6.391,0,14.024-7.101,12.96-21.126v-.355l-.711-6.214c-13.492,4.261-21.48,9.764-19.883,20.238.71,4.971,3.906,7.456,7.634,7.456Z"/><path class="cls-1" d="m172.775,17.53c-2.457,3.051-4.297,6.844-5.753,11.097-2.665-2.724-6.046-4.879-10.603-6.098-1.21-.324-2.356-.874-3.303-1.694-6.475-5.604-.353-15.233,8.438-10.49,4.153-7.697,14.234-3.223,12.771,3.992-.238,1.175-.798,2.259-1.55,3.192Z"/></svg>